<svg width="700" height="700" viewBox="0 0 700 700" fill="none" xmlns="http://www.w3.org/2000/svg">
<path d="M350 492.188C387.697 492.144 423.838 477.15 450.494 450.494C477.15 423.838 492.144 387.697 492.188 350C495.386 282.323 495.86 244.105 492.188 175C492.187 137.29 477.207 101.124 450.542 74.4583C423.876 47.7929 387.71 32.8125 350 32.8125C312.29 32.8125 276.124 47.7929 249.458 74.4583C222.793 101.124 207.813 137.29 207.812 175C201.903 241.879 202.271 280.288 207.812 350C207.856 387.697 222.85 423.838 249.506 450.494C276.162 477.15 312.303 492.144 350 492.188ZM273.438 175C273.438 157.761 281.504 141.228 295.862 129.038C310.22 116.848 329.694 110 350 110C370.306 110 389.78 116.848 404.138 129.038C418.496 141.228 426.562 157.761 426.562 175C430.542 248.404 430.424 286.571 426.562 350C426.562 366.841 418.496 382.993 404.138 394.901C389.78 406.81 370.306 413.5 350 413.5C329.694 413.5 310.22 406.81 295.862 394.901C281.504 382.993 273.438 366.841 273.438 350C268.989 282.455 268.553 244.214 273.438 175ZM382.812 599.43V656.25C382.812 664.952 379.355 673.298 373.202 679.452C367.048 685.605 358.702 689.062 350 689.062C341.298 689.062 332.952 685.605 326.798 679.452C320.645 673.298 317.188 664.952 317.188 656.25V599.43C256.704 591.391 201.193 561.676 160.962 515.802C120.732 469.929 98.5148 411.015 98.4375 350C98.4375 341.298 101.895 332.952 108.048 326.798C114.202 320.645 122.548 317.188 131.25 317.188C139.952 317.188 148.298 320.645 154.452 326.798C160.605 332.952 164.062 341.298 164.062 350C164.062 399.314 183.652 446.608 218.522 481.478C253.392 516.348 300.686 535.938 350 535.938C399.314 535.938 446.608 516.348 481.478 481.478C516.348 446.608 535.938 399.314 535.938 350C535.938 341.298 539.395 332.952 545.548 326.798C551.702 320.645 560.048 317.188 568.75 317.188C577.452 317.188 585.798 320.645 591.952 326.798C598.105 332.952 601.562 341.298 601.562 350C601.485 411.015 579.268 469.929 539.038 515.802C498.807 561.676 443.296 591.391 382.812 599.43Z" fill="white"/>
</svg>
